<?xml version="1.0" encoding="UTF-8"?>
<svg id="Layer_1" data-name="Layer 1" xmlns="http://www.w3.org/2000/svg" viewBox="0 0 469.99 270.85">
  <defs>
    <style>
      .cls-1 {
        fill: #f7f5ee;
      }

      .cls-2 {
        fill: #fff;
      }

      .cls-3 {
        fill: #0043ff;
      }

      .cls-4 {
        fill: #b3b3b3;
      }

      .cls-5 {
        fill: #600;
      }

      .cls-6 {
        fill: #000e35;
      }

      .cls-7 {
        fill: #ff1200;
      }
    </style>
  </defs>
  <g>
    <path d="M436.97,80.99l27.65-44.93h-26.48l-15.72,28.31-15.83-28.31h-27.66l27.66,44.02-18.83,30.57-25.39-74.59h-29.99l-26.89,78.69V36.06h-28.43l-20.65,62.71-20.65-62.71h-10.05l-18.65,35.83h0s-39.61,0-39.61,0v-16.36h39.61v-19.48h-64.02v92.72h34.42l10.14-19.48h-20.14v-17.78h29.4l10.21-19.62v56.88h22.2v-54.8l17.8,54.8h17.78l17.91-55.05v55.05h42.48l5.59-17.78h32.2l5.57,17.78h0s0,0,0,0h34.6l18.05-32.46,19.22,32.46h27.79l-31.28-47.79ZM336.53,91.25l10.39-34.68,10.38,34.68h-20.77Z"/>
    <path d="M137.97,65.28c0-9.01-2.93-16.13-8.76-21.37-5.85-5.23-15.19-7.85-27.98-7.85h-37.28v92.72h23.39v-32.08h14.4l15.59,32.08h25.71l-19.34-37.14c9.51-5.45,14.28-14.24,14.28-26.36ZM111.16,75.28c-2.13,1.99-5.86,2.98-11.24,2.98h-12.59v-23.51h12.2c5.45,0,9.29.96,11.49,2.86,2.22,1.9,3.32,4.8,3.32,8.69s-1.07,6.98-3.18,8.97Z"/>
  </g>
  <g>
    <path class="cls-2" d="M30.69,67.11c-1.11,0-2.07-.67-2.87-1.33-5.2-4.47-14.41-12.58-18.02-16.99-3.12-3.8-5.82-7.32-7.16-11.78-.77-2.53-1.17-5.18-1.17-7.89,0-3.54.67-6.99,2.01-10.26C7.88,8,18.56.97,30.68.97s22.81,7.03,27.22,17.9c1.33,3.27,2,6.73,2,10.26,0,2.69-.39,5.34-1.17,7.89-1.34,4.45-4.04,7.97-7.16,11.78-3.62,4.41-12.82,12.52-17.99,16.96-.84.69-1.81,1.36-2.9,1.36"/>
    <path class="cls-1" d="M56.42,19.5H4.74c-1.22,3-1.89,6.27-1.89,9.68,0,2.58.38,5.08,1.1,7.45h53.25c.72-2.36,1.1-4.86,1.1-7.45,0-3.42-.67-6.68-1.89-9.68"/>
    <path class="cls-5" d="M30.58,2.54c-11.76,0-21.81,7.03-25.84,16.96h51.68C52.38,9.57,42.33,2.54,30.58,2.54"/>
    <path class="cls-6" d="M3.95,36.63c1.3,4.32,4.08,7.84,6.92,11.29,3.77,4.6,14.04,13.55,18.06,17h0c.54.45,1.17.9,1.64.9s1.1-.45,1.64-.89h0c4.02-3.46,14.29-12.41,18.06-17.01,2.83-3.45,5.62-6.98,6.92-11.29H3.95"/>
    <path class="cls-7" d="M56.41,19.5h-25.84V7.17c0-2.63,2.36-4.66,4.95-4.21,9.57,1.66,17.43,8.03,20.89,16.53"/>
    <path class="cls-3" d="M57.21,36.63c-1.31,4.32-4.09,7.84-6.92,11.29-3.77,4.6-14.04,13.55-18.06,17h0c-.54.45-1.17.9-1.64.9v-24.76c0-2.45,1.98-4.43,4.43-4.43h22.2"/>
  </g>
  <g>
    <path class="cls-4" d="M85.88,233.31h-15.52l-3.34,7.44h-3.07l12.74-27.86h2.91l12.74,27.86h-3.11l-3.34-7.44ZM84.81,230.93l-6.68-14.97-6.69,14.97h13.37Z"/>
    <path class="cls-4" d="M115.55,219.82v18.39c0,7.2-3.55,10.47-10.47,10.47-3.82,0-7.56-1.15-9.76-3.22l1.44-2.15c1.99,1.79,5.01,2.86,8.24,2.86,5.29,0,7.72-2.43,7.72-7.6v-2.67c-1.75,2.67-4.74,4.06-8.16,4.06-5.97,0-10.51-4.18-10.51-10.19s4.54-10.11,10.51-10.11c3.5,0,6.53,1.43,8.28,4.18v-4.02h2.71ZM112.8,229.77c0-4.54-3.35-7.64-7.96-7.64s-7.92,3.1-7.92,7.64,3.31,7.68,7.92,7.68,7.96-3.15,7.96-7.68Z"/>
    <path class="cls-4" d="M141.71,231.16h-17.52c.32,4.38,3.66,7.28,8.24,7.28,2.55,0,4.81-.92,6.41-2.75l1.59,1.83c-1.87,2.23-4.77,3.42-8.08,3.42-6.53,0-10.98-4.46-10.98-10.67s4.34-10.63,10.23-10.63,10.15,4.34,10.15,10.63c0,.24-.04.56-.04.88ZM124.19,229.05h14.85c-.36-4.1-3.34-6.97-7.44-6.97s-7.04,2.87-7.4,6.97Z"/>
    <path class="cls-4" d="M166.79,228.62v12.14h-2.83v-11.86c0-4.42-2.31-6.69-6.29-6.69-4.5,0-7.33,2.79-7.33,7.56v10.98h-2.83v-20.94h2.71v3.86c1.51-2.55,4.34-4.02,7.96-4.02,5.09,0,8.6,2.95,8.6,8.96Z"/>
    <path class="cls-4" d="M172.45,230.29c0-6.25,4.54-10.63,10.78-10.63,3.55,0,6.53,1.39,8.2,4.14l-2.11,1.43c-1.43-2.11-3.66-3.1-6.09-3.1-4.57,0-7.92,3.26-7.92,8.16s3.35,8.16,7.92,8.16c2.43,0,4.66-.95,6.09-3.06l2.11,1.43c-1.67,2.71-4.66,4.14-8.2,4.14-6.25,0-10.78-4.42-10.78-10.67Z"/>
    <path class="cls-4" d="M214.85,231.16h-17.52c.32,4.38,3.66,7.28,8.24,7.28,2.55,0,4.81-.92,6.41-2.75l1.59,1.83c-1.87,2.23-4.77,3.42-8.08,3.42-6.53,0-10.98-4.46-10.98-10.67s4.34-10.63,10.23-10.63,10.15,4.34,10.15,10.63c0,.24-.04.56-.04.88ZM197.34,229.05h14.85c-.36-4.1-3.34-6.97-7.44-6.97s-7.04,2.87-7.4,6.97Z"/>
    <path class="cls-4" d="M230.46,213.21c0-1.08.92-1.99,2.07-1.99s2.07.88,2.07,1.95c0,1.15-.88,2.07-2.07,2.07s-2.07-.92-2.07-2.03ZM231.1,219.82h2.83v20.94h-2.83v-20.94Z"/>
    <path class="cls-4" d="M276.36,228.62v12.14h-2.83v-11.86c0-4.42-2.23-6.69-6.01-6.69-4.3,0-7,2.79-7,7.56v10.98h-2.83v-11.86c0-4.42-2.23-6.69-6.05-6.69-4.26,0-7,2.79-7,7.56v10.98h-2.83v-20.94h2.71v3.82c1.47-2.51,4.18-3.98,7.68-3.98s6.17,1.47,7.44,4.42c1.51-2.71,4.5-4.42,8.28-4.42,5.09,0,8.44,2.95,8.44,8.96Z"/>
    <path class="cls-4" d="M318.61,228.62v12.14h-2.83v-11.86c0-4.42-2.23-6.69-6.01-6.69-4.3,0-7,2.79-7,7.56v10.98h-2.83v-11.86c0-4.42-2.23-6.69-6.05-6.69-4.26,0-7,2.79-7,7.56v10.98h-2.83v-20.94h2.71v3.82c1.47-2.51,4.18-3.98,7.68-3.98s6.17,1.47,7.44,4.42c1.51-2.71,4.5-4.42,8.28-4.42,5.09,0,8.44,2.95,8.44,8.96Z"/>
    <path class="cls-4" d="M324.27,230.29c0-6.21,4.54-10.63,10.67-10.63s10.63,4.42,10.63,10.63-4.5,10.67-10.63,10.67-10.67-4.46-10.67-10.67ZM342.7,230.29c0-4.9-3.3-8.16-7.76-8.16s-7.8,3.26-7.8,8.16,3.35,8.16,7.8,8.16,7.76-3.26,7.76-8.16Z"/>
    <path class="cls-4" d="M372.57,230.29c0,6.33-4.46,10.67-10.43,10.67-3.46,0-6.37-1.51-8.08-4.34v4.14h-2.71v-29.54h2.83v12.58c1.75-2.71,4.62-4.14,7.96-4.14,5.97,0,10.43,4.3,10.43,10.63ZM369.74,230.29c0-4.9-3.38-8.16-7.8-8.16s-7.8,3.26-7.8,8.16,3.34,8.16,7.8,8.16,7.8-3.26,7.8-8.16Z"/>
    <path class="cls-4" d="M377.71,213.21c0-1.08.92-1.99,2.07-1.99s2.07.88,2.07,1.95c0,1.15-.88,2.07-2.07,2.07s-2.07-.92-2.07-2.03ZM378.34,219.82h2.83v20.94h-2.83v-20.94Z"/>
    <path class="cls-4" d="M389.06,211.22h2.83v29.54h-2.83v-29.54Z"/>
    <path class="cls-4" d="M399.13,213.21c0-1.08.92-1.99,2.07-1.99s2.07.88,2.07,1.95c0,1.15-.88,2.07-2.07,2.07s-2.07-.92-2.07-2.03ZM399.77,219.82h2.83v20.94h-2.83v-20.94Z"/>
    <path class="cls-4" d="M428.71,231.16h-17.52c.32,4.38,3.66,7.28,8.24,7.28,2.55,0,4.81-.92,6.41-2.75l1.59,1.83c-1.87,2.23-4.77,3.42-8.08,3.42-6.53,0-10.98-4.46-10.98-10.67s4.34-10.63,10.23-10.63,10.15,4.34,10.15,10.63c0,.24-.04.56-.04.88ZM411.19,229.05h14.85c-.36-4.1-3.34-6.97-7.44-6.97s-7.04,2.87-7.4,6.97ZM418.4,216.6l-6.45-4.94h3.78l5.45,4.94h-2.79Z"/>
    <path class="cls-4" d="M445.08,219.66v2.75c-.24,0-.48-.04-.68-.04-4.38,0-7.05,2.79-7.05,7.72v10.67h-2.83v-20.94h2.71v4.1c1.31-2.79,3.98-4.26,7.84-4.26Z"/>
    <path class="cls-4" d="M468.21,231.16h-17.52c.32,4.38,3.66,7.28,8.24,7.28,2.55,0,4.81-.92,6.41-2.75l1.59,1.83c-1.87,2.23-4.77,3.42-8.08,3.42-6.53,0-10.98-4.46-10.98-10.67s4.34-10.63,10.23-10.63,10.15,4.34,10.15,10.63c0,.24-.04.56-.04.88ZM450.69,229.05h14.85c-.36-4.1-3.34-6.97-7.44-6.97s-7.04,2.87-7.4,6.97Z"/>
  </g>
  <g>
    <g>
      <path d="M63.95,148.17h20.01c14.41,0,24.29,8.68,24.29,22.02s-9.88,22.02-24.29,22.02h-20.01v-44.04ZM83.45,183.84c8.75,0,14.47-5.22,14.47-13.65s-5.73-13.65-14.47-13.65h-9.31v27.31h9.31Z"/>
      <path d="M115.54,172.83v-24.66h10.19v24.29c0,8.37,3.65,11.83,9.81,11.83s9.81-3.46,9.81-11.83v-24.29h10.07v24.66c0,12.96-7.42,20.13-19.94,20.13s-19.95-7.17-19.95-20.13Z"/>
    </g>
    <g>
      <path d="M185.95,170.19c0-13.28,10.19-22.78,23.91-22.78,7.61,0,13.97,2.77,18.12,7.8l-6.54,6.04c-2.96-3.4-6.67-5.16-11.07-5.16-8.24,0-14.09,5.79-14.09,14.09s5.85,14.09,14.09,14.09c4.4,0,8.12-1.76,11.07-5.22l6.54,6.04c-4.15,5.1-10.51,7.86-18.18,7.86-13.65,0-23.85-9.5-23.85-22.78Z"/>
      <path d="M262.97,182.77h-20.45l-3.9,9.44h-10.44l19.63-44.04h10.07l19.69,44.04h-10.7l-3.9-9.44ZM259.76,175.03l-6.98-16.86-6.98,16.86h13.97Z"/>
      <path d="M310.22,192.21l-8.49-12.27h-9.37v12.27h-10.19v-44.04h19.06c11.77,0,19.13,6.1,19.13,15.98,0,6.61-3.33,11.45-9.06,13.91l9.88,14.16h-10.95ZM300.65,156.47h-8.31v15.35h8.31c6.23,0,9.37-2.89,9.37-7.68s-3.15-7.68-9.37-7.68Z"/>
      <path d="M336.9,156.47h-14.09v-8.31h38.38v8.31h-14.09v35.74h-10.19v-35.74Z"/>
      <path d="M366.66,148.17h10.19v44.04h-10.19v-44.04Z"/>
      <path d="M421.4,184.03v8.18h-34.1v-44.04h33.28v8.18h-23.15v9.56h20.45v7.93h-20.45v10.19h23.97Z"/>
      <path d="M457.58,192.21l-8.49-12.27h-9.37v12.27h-10.19v-44.04h19.06c11.77,0,19.13,6.1,19.13,15.98,0,6.61-3.33,11.45-9.06,13.91l9.88,14.16h-10.95ZM448.01,156.47h-8.31v15.35h8.31c6.23,0,9.37-2.89,9.37-7.68s-3.15-7.68-9.37-7.68Z"/>
    </g>
  </g>
</svg>